Simulation
nRows=27
nColumns=15
endheader
time  TH_x TH_y TH_z SC_y  SC_z  SC_x  AC_y  AC_z  AC_x  GH_y  GH_z  GH_yy  EL_x  PS_y
0.0  0.000000  0.000000  0.000000  -23.33194835935023  5.212499196738373  -6.070045279435982  49.38511720589075  9.454823817069903  2.84371557089372  157.63618846751154  9.374202538217205  -111.5968840930719  20.704120228087422  120.000000
0.04016479400749064  0.000000  0.000000  0.000000  -23.54475654052161  4.994883524367898  -6.234475921530428  50.04021904946648  9.618998599306705  3.222598073557231  153.87761868592582  7.909429015864529  -108.62754234863887  20.302654888331393  120.000000
0.08032958801498127  0.000000  0.000000  0.000000  -23.778094605560643  4.841186865848342  -6.38130454516552  50.604135121847335  9.822986980861625  3.577299660752824  148.83045642008486  6.381793462671803  -104.45919895917409  19.85952286248317  120.000000
0.12049438202247191  0.000000  0.000000  0.000000  -24.032956333888954  4.715498498991918  -6.534671612972986  51.070623302498085  10.04943458249839  3.8910087661724466  141.32765258454575  4.813464019534114  -98.00963574723113  19.366890853785623  120.000000
0.16065917602996255  0.000000  0.000000  0.000000  -24.307995934739704  4.60200383316776  -6.708515111966463  51.448279786254346  10.293953628316235  4.164083554322975  127.87656866209814  3.2711432907589844  -85.84749679375574  18.83208675965534  120.000000
0.20082397003745317  0.000000  0.000000  0.000000  -24.606671409861818  4.488311757338628  -6.903376915135755  51.74952112140967  10.5612078616032  4.398209447003775  96.1292356170578  2.0333486803109837  -55.65829668873448  18.25963736107194  120.000000
0.24098876404494382  0.000000  0.000000  0.000000  -24.929206375853152  4.373617561540049  -7.108204195639044  51.98883396475985  10.859376463702052  4.597376344149633  39.53984063337746  2.0967129584336353  -0.8994841628432673  17.656240664909298  120.000000
0.28115355805243447  0.000000  0.000000  0.000000  -25.281603515717993  4.2670204009250865  -7.304528569155128  52.177073896234525  11.192499715249363  4.767579754268718  8.757157306380874  3.5441591529551926  27.79900262102379  17.030804923728024  120.000000
0.3213183520599251  0.000000  0.000000  0.000000  -25.668628455561866  4.182996283467853  -7.47289561848557  52.31963786116114  11.560149697316817  4.913741071341117  -3.5736478866116292  5.463407349019393  37.825263154638705  16.391675157061933  120.000000
0.3614831460674157  0.000000  0.000000  0.000000  -26.095740010181686  4.140357458494398  -7.594947780525205  52.41764585381606  11.954753980142995  5.042269008610816  -9.74957734724672  7.589513939421005  41.521802686043436  15.748962781596147  120.000000
0.40164794007490634  0.000000  0.000000  0.000000  -26.56747436918264  4.157860696415344  -7.653277589754793  52.470202886412984  12.362739384004634  5.158663713274994  -13.364066958127395  9.861157116393741  42.53193228589508  15.112558315856466  120.000000
0.441812734082397  0.000000  0.000000  0.000000  -27.08735775992928  4.251681177797971  -7.629432671988944  52.47851412980151  12.768077836956708  5.267461968021777  -15.696529929097606  12.258145748920308  42.18915190705358  14.491692646213785  120.000000
0.48197752808988764  0.000000  0.000000  0.000000  -27.659421004937993  4.437051271857525  -7.503844237582168  52.44807940124199  13.157481511140348  5.373904612068457  -17.32158810201415  14.768442356885611  41.12210442809151  13.895500573393566  120.000000
0.5221423220973783  0.000000  0.000000  0.000000  -28.28607356457656  4.7235588559038035  -7.261009990983124  52.38887702845712  13.525797907714137  5.4860318154641154  -18.54934561824855  17.377895174190233  39.6947138951304  13.330981073443496  120.000000
0.5623071161048689  0.000000  0.000000  0.000000  -28.960843787229706  5.107853970746602  -6.8879401264451685  52.314712447338536  13.875135406349091  5.60973421623566  -19.57738314635793  20.06023316864378  38.15332534071313  12.802228145312965  120.000000
0.6024719101123596  0.000000  0.000000  0.000000  -29.664888892896634  5.575719911530386  -6.368607876838125  52.239510778528455  14.207867476483294  5.74725206225901  -20.54061384711583  22.772140842031487  36.6741151973176  12.310763060104525  120.000000
0.6426367041198502  0.000000  0.000000  0.000000  -30.369935477721924  6.110884159490959  -5.691213417460796  52.174212879397984  14.53118860230566  5.901902474204308  -21.526600968681112  25.45681987638808  35.37568163994611  11.857339648579778  120.000000
0.6828014981273408  0.000000  0.000000  0.000000  -31.048787281114933  6.69509714065557  -4.852152182761594  52.12729419531186  14.860349972711132  6.077422774436665  -22.578288465911886  28.060427114782293  34.321349718602896  11.441602511037058  120.000000
0.7229662921348314  0.000000  0.000000  0.000000  -31.683598491551212  7.306473798606526  -3.8487775487636906  52.10621552801669  15.202901671453928  6.272526617125939  -23.690141052099264  30.54876636679649  33.51501557089585  11.05864368517953  120.000000
0.7631310861423221  0.000000  0.000000  0.000000  -32.2649939582912  7.923845589674124  -2.6792523211059858  52.11680208466803  15.550574764742796  6.483401477926266  -24.822078007857666  32.907297318064835  32.91683440529049  10.699297613432446  120.000000
0.8032958801498127  0.000000  0.000000  0.000000  -32.7895528957125  8.527818667358172  -1.3507860645699694  52.162841523572965  15.886868215977413  6.707334656195136  -25.916901480452793  35.13644379389779  32.462487635940654  10.35228057825959  120.000000
0.8434606741573034  0.000000  0.000000  0.000000  -33.25832961965877  9.101918001922067  0.1176450006517218  52.24544974125168  16.195027909629268  6.944387637282521  -26.914352630953786  37.24719046952437  32.08006664601488  10.004848760471655  120.000000
0.883625468164794  0.000000  0.000000  0.000000  -33.676050642293646  9.634447358110776  1.6998465151393436  52.36256798308681  16.461724902006637  7.196127133397126  -27.76472003815691  39.25565795274829  31.706361703070506  9.645220528450622  120.000000
0.9237902621722847  0.000000  0.000000  0.000000  -34.05093838218318  10.118724644459062  3.3674926875370823  52.50826945898664  16.678373115146133  7.464117567598587  -28.436057484503966  41.179026426084924  31.297710264906687  9.266462506314  120.000000
0.9639550561797753  0.000000  0.000000  0.000000  -34.39412785947979  10.553363136429235  5.091642739780555  52.67244192172963  16.841670850006167  7.750847049478244  -28.916786718392913  43.03143301977613  30.83529801518203  8.869534847611286  120.000000
1.004119850187266  0.000000  0.000000  0.000000  -34.71794928961563  10.941254065241964  6.8425547570175596  52.84132474880521  16.952750013561175  8.0596262724383  -29.21312997318998  44.82159417835663  30.323630701075256  8.463962364503066  120.000000
1.0442846441947566  0.000000  0.000000  0.000000  -35.034660740641016  11.287716932171  8.589845926868259  53.00039768319435  17.016060386077115  8.393813100498887  -29.346216425238342  46.551324126411394  29.78590355019829  8.065334508996177  120.000000
